<?xml version="1.0" encoding="UTF-8" standalone="no"?>
<!-- Created with Inkscape (http://www.inkscape.org/) -->

<svg
   width="184.1935mm"
   height="290.00003mm"
   viewBox="0 0 184.1935 290.00003"
   version="1.1"
   id="svg1"
   xml:space="preserve"
   xmlns:inkscape="http://www.inkscape.org/namespaces/inkscape"
   xmlns:sodipodi="http://sodipodi.sourceforge.net/DTD/sodipodi-0.dtd"
   xmlns="http://www.w3.org/2000/svg"
   xmlns:svg="http://www.w3.org/2000/svg"><sodipodi:namedview
     id="namedview1"
     pagecolor="#ffffff"
     bordercolor="#000000"
     borderopacity="0.25"
     inkscape:showpageshadow="2"
     inkscape:pageopacity="0.0"
     inkscape:pagecheckerboard="0"
     inkscape:deskcolor="#d1d1d1"
     inkscape:document-units="mm" /><defs
     id="defs1"><style
       id="style1">
      .cls-1 {
        fill: none;
      }

      .cls-2 {
        fill: #e95420;
      }

      .cls-3 {
        fill: #fff;
      }
    </style></defs><g
     inkscape:label="Layer 1"
     inkscape:groupmode="layer"
     id="layer1"
     transform="translate(-12.903249,-3.4999973)"><g
       id="g1"
       transform="matrix(0.26458333,0,0,0.26458333,-30.476219,13.033335)"><g
         id="g3"
         transform="matrix(2.3622048,0,0,2.3622048,-197.49344,1247.4621)"><g
           id="g4"
           transform="matrix(1.16,0,0,1.16,-48.058799,49.815307)"
           inkscape:export-filename="g4.svg"
           inkscape:export-xdpi="96"
           inkscape:export-ydpi="96"><g
             id="g19"
             transform="translate(173.3375,-511.34562)"><rect
               class="cls-2"
               width="254.06"
               height="400"
               id="rect15"
               x="0"
               y="0" /><rect
               class="cls-1"
               x="30.25"
               y="169.38"
               width="193.57001"
               height="193.57001"
               id="rect16" /><circle
               class="cls-3"
               cx="58.09"
               cy="255.92"
               r="26.299999"
               id="circle16" /><circle
               class="cls-3"
               cx="167.63"
               cy="198.25"
               r="26.299999"
               id="circle17" /><path
               class="cls-3"
               d="M 117.41,323.62 C 98.46,319.56 82.63,307.46 73.73,290.3 c -7.01,3.19 -14.9,4.16 -22.49,2.76 10.77,26.45 33.61,45.66 61.65,51.67 6.15,1.32 12.42,1.96 18.68,1.92 -4.83,-6.35 -7.52,-14.01 -7.7,-21.99 -2.17,-0.24 -4.33,-0.59 -6.45,-1.05 z"
               id="path17-7" /><circle
               class="cls-3"
               cx="161.71001"
               cy="323.76001"
               r="26.299999"
               id="circle18" /><path
               class="cls-3"
               d="m 198.31,314.1 c 8.18,-10.31 13.94,-22.5 16.71,-35.45 4.84,-22.59 0.32,-46.29 -12.4,-65.51 -3.03,7.14 -8.17,13.17 -14.79,17.32 7.1,13.38 9.26,28.82 6.08,43.67 -1.56,7.27 -4.31,14.12 -8.18,20.38 6.19,5.08 10.56,11.91 12.59,19.6 z"
               id="path18" /><path
               class="cls-3"
               d="m 56.06,218.2 c 0.67,-0.04 1.34,-0.05 2,-0.05 2.66,0 5.31,0.28 7.94,0.85 4.29,0.92 8.32,2.54 12.01,4.84 11.84,-17.03 30.95,-27.25 51.65,-27.63 0.11,-1.99 0.38,-3.97 0.79,-5.92 1.21,-5.63 3.67,-10.9 7.19,-15.41 -33.08,-2.62 -65.22,14.45 -81.59,43.33 z"
               id="path19" /></g><g
             id="g2"
             transform="matrix(0.14940425,0,0,0.14940425,211.69374,-321.15935)"
             style="fill:#ffffff;stroke:none"><path
               fill="#ec5100"
               d="m 680.03338,316.87807 q 4.84,-1.15 9.82,-2.27 16.45,-3.71 32.2,-12.32 c 21.77,-11.89 38.63,-33.47 42.02,-58.22 q 0.12,-0.86 0.51,-0.08 10.83,21.86 5.56,43.54 c -1.89,7.79 -4.62,16.42 -9.55,23.22 -3.64,5.01 -6.54,10.3 -10.64,14.95 q -13.21,14.96 -30.23,23.42 -3.44,1.7 -6.97,3.6 -0.99,0.53 0.11,0.78 c 10.46,2.46 19.83,5.09 31.06,6.55 q 22,2.84 38.94,-9.51 c 7.77,-5.67 15.74,-13.89 20.23,-22.63 q 0.5,-0.96 0.61,0.12 0.1,0.98 0.12,2.01 0.4,18.84 -8.67,34.05 -2.62,4.38 -6.88,10.06 -4.14,5.52 -8.17,8.24 c -8.93,6.01 -17.99,5.79 -28.11,4.63 -17.06,-1.97 -34.3,-1.86 -50.79,1.86 -11.63,2.62 -22.11,7.53 -33.04,12.05 -7.35,3.05 -18.28,5.2 -24.52,-0.79 q -0.56,-0.53 -0.46,0.24 c 1.75,12.95 0.22,23.86 -5.94,35.95 q -5.13,10.06 -13.8,16.63 c -7.56,5.73 -16.63,6.31 -26.08,7.07 q -0.36,0.03 -0.44,-0.32 -0.04,-0.14 0.02,-0.27 0.04,-0.1 0.15,-0.15 3.7,-1.54 7.25,-4.77 12.29,-11.2 13.98,-28.25 0.09,-0.82 -0.29,-0.09 -7.87,15.06 -23.54,21.62 c -9.97,4.17 -20.39,3.27 -30.83,4.88 -14.2,2.18 -27.93,11.02 -36.79,21.53 -7.2,8.54 -13.1,19.4 -21.22,27.76 -10.08,10.36 -26.82,10.77 -40.58,8.1 q -10.58,-2.05 -19.63,-2.49 -15.63,-0.76 -29.61,6.85 c -2.05,1.12 -3.52,2.66 -5.1,4.32 a 1.22,1.21 36.4 0 1 -1.48,0.22 q -17.9,-10 -16.71,-31.31 0.03,-0.58 -0.52,-0.74 -9.79,-2.85 -15.65,-11.58 -4.9,-7.31 -4.78,-16.89 0.19,-14.22 11.24,-24.55 11.52,-10.76 27.34,-8.81 c 1.87,0.23 3.63,0.29 5.35,1.11 q 0.99,0.47 -0.09,0.7 c -7.45,1.58 -13.4,7.42 -18.61,13.09 -2.92,3.17 -5.3,6.48 -6.14,10.82 q -1.95,10.01 3.98,17.66 c 1.3,1.67 3.09,2.93 5.3,2.9 q 6.55,-0.09 11.36,-3.56 a 0.38,0.38 0 0 0 -0.05,-0.64 c -13.6,-7.11 -6.97,-22.34 3.56,-27.46 q 5.38,-2.62 10.17,-5.13 23.24,-12.19 46.42,-24.33 6.16,-3.23 12.07,-7.84 c 0.8,-0.62 1.66,-1.05 2.6,-1.41 q 0.85,-0.32 -0.04,-0.51 -16.71,-3.57 -18.89,-20.04 -1.13,-8.57 2.28,-16.57 c 2.5,-5.88 7.24,-10.77 11.94,-14.9 q 0.21,-0.18 0.4,0.02 l 0.18,0.18 a 0.03,0.03 0 0 1 0,0.04 q -2.15,2 -2.91,4.72 -3.31,11.78 3.03,22.12 0.6,0.98 1.52,1.6 0.65,0.44 0.65,-0.34 c 0.02,-14.21 9.76,-24.04 22.26,-29.31 8.06,-3.4 18.28,-6.37 24.4,-12.87 a 0.46,0.45 49.6 0 1 0.71,0.06 q 4.09,6.2 10.08,10.54 a 0.49,0.49 0 0 1 -0.02,0.81 c -7.29,4.72 -13.56,11.08 -19.71,17.08 q -4.31,4.2 -5.88,10.35 c -1.54,6.03 -2.69,11.65 -1.82,17.85 q 1.11,7.96 5.01,16.21 0.4,0.86 0.53,-0.08 1.84,-12.89 6.11,-23.89 6.08,-15.64 19.55,-24.12 6.8,-4.29 13.68,-6.87 c 8.01,-3 17.39,-4.33 26.16,-5.07 17.61,-1.48 35.04,-4.74 41.89,-23.76 0.29,-0.79 1.03,-1.42 1.77,-1.77 q 17.24,-8.05 28.75,-24.48 c 8.42,-12.02 11.59,-25.89 11.13,-40.33 q -0.23,-7.24 -2.84,-14.34 -0.5,-1.36 0.61,-0.44 c 21.08,17.5 26.04,45.69 15.01,70.33 q -0.75,1.66 -1.96,3.07 -0.71,0.84 0.36,0.59 z m -98.44,74.18 c -0.52,6.95 0.67,12.74 -4.11,18.47 -4.37,5.26 -11.65,7.78 -18.09,7.63 q -11,-0.25 -20.86,5.38 a 0.55,0.55 0 0 0 0.05,0.98 c 15.36,6.65 31.9,9.48 46.61,0.17 11.93,-7.54 16.63,-21.81 15.59,-35.38 a 0.64,0.64 0 0 1 0.58,-0.68 c 11.9,-1.08 22.83,-5.21 31,-14.04 q 0.61,-0.65 -0.28,-0.7 -12.08,-0.68 -24.04,-0.55 c -23,0.25 -45.1,11.12 -59.95,29.32 a 0.28,0.28 0 0 0 0.2,0.45 q 7.53,0.41 15.49,-1.42 c 5.99,-1.38 12.46,-5.81 17.15,-9.95 a 0.39,0.4 71.2 0 1 0.66,0.32 z m -126.57,53.46 c 7.51,-8.74 25.43,-10.23 32.99,-0.85 q 1.24,1.54 1.01,-0.42 c -0.78,-6.5 -4.47,-13.89 -10.87,-16.2 q -4.29,-1.55 -8.69,-1.24 -20.39,1.44 -28.98,20.49 c -3.93,8.7 0.03,20.6 5.78,27.55 q 0.56,0.67 0.41,-0.18 -2.75,-16.23 8.35,-29.15 z m 30.2719,10.3248 a 9.91,9.91 0 0 0 -13.9993,-0.6602 l -1.7011,1.5479 a 9.91,9.91 0 0 0 -0.6602,13.9993 l 1.0768,1.1834 a 9.91,9.91 0 0 0 13.9993,0.6602 l 1.7011,-1.5479 a 9.91,9.91 0 0 0 0.6602,-13.9993 z"
               id="path11"
               style="fill:#ffffff;stroke:none" /><path
               stroke="#f29d63"
               vector-effect="non-scaling-stroke"
               d="m 362.92,716.67 39.2,37.93 c 0.22047,0.13521 0.49982,-0.0431 0.47,-0.3 -0.68,-5.92 -0.7,-11.71 -0.06,-17.37 0.56,-4.96667 1.71,-10.89 3.45,-17.77 1.10667,-4.35333 2.92667,-8.78 5.46,-13.28 4.66,-8.27 9.25,-15.75 15.8,-22.54 13.91,-14.41 30.38,-25.58 48.98,-32.37 7.35333,-2.68 13.47333,-4.53 18.36,-5.55 14.02,-2.91333 28.94667,-5.85 44.78,-8.81 10.43,-1.94 20.74,-4.76 30.48,-7.47 15.93333,-4.44 31.74667,-11.77667 47.44,-22.01 4.62667,-3.01333 8.79,-6.41333 12.49,-10.2 4.22,-4.31333 8.09333,-8.37 11.62,-12.17 2.52,-2.71 4.53,-5.93 7.04,-8.69 4.05,-4.43 6.26,-9.83 9.51,-14.73 1.74,-2.62667 3.24,-5.41667 4.5,-8.37 4.8,-11.26667 7.58333,-22.34 8.35,-33.22 0.06,-0.76667 -0.19333,-1.44 -0.76,-2.02 -10.11,-10.34 -21.29,-18.57 -34.98,-22.61 -0.34,-0.1 -0.49333,0.03 -0.46,0.39 0.38667,3.67333 0.41667,7.39 0.09,11.15 -1.78667,20.70667 -10.23333,38.86 -25.34,54.46 -12.04,12.43333 -25.98333,22.16667 -41.83,29.2 -14.89333,6.6 -30.13,11.74333 -45.71,15.43 -14.06667,3.32667 -28.06667,6.92 -42,10.78 -29.42,8.16 -57.51,19.76 -79.91,39.97 -18.94,17.08667 -31.08667,37.08333 -36.44,59.99 -0.0559,0.23743 -0.3411,0.33431 -0.53,0.18"
               id="path5"
               sodipodi:nodetypes="ccccccccccccccccccccccscccccc"
               style="display:inline;fill:#ffffff;stroke:none"
               transform="translate(94.613384,12.278071)" /><path
               fill="#ec5100"
               d="m 610.65338,311.62807 q -7.63,18.35 -27.69,21.97 -12.31,2.22 -24.98,5.55 a 0.86,0.85 65 0 1 -0.9,-0.33 q -4.91,-6.75 -11.84,-11.84 -0.75,-0.55 0.17,-0.74 c 9.21,-1.86 20.73,-5.78 28.24,-11.64 21.9,-17.13 22.43,-46.19 5.63,-66.92 q -1.11,-1.37 0.49,-0.63 17.36,8.01 26.81,24.04 c 7.27,12.33 9.51,27.46 4.07,40.54 z"
               id="path12"
               style="fill:#ffffff;stroke:none" /><path
               fill="#ec5100"
               d="m 600.50338,511.25807 q 6.35,7.47 11.05,15.44 c 9.2,15.57 10.74,37.26 7.11,55.14 -0.81,4.01 -2.45,7.79 -3.49,11.73 q -0.51,1.93 -0.91,-0.03 c -3.68,-17.86 -12.79,-34.27 -27.9,-45.03 -5.26,-3.75 -10.37,-4.62 -16.07,-6.92 a 0.32,0.31 2.8 0 0 -0.42,0.38 c 5.52,18.58 1.87,37.9 -10.56,53.08 -2.48,3.01 -4.47,6.26 -7.09,9.21 q -11.38,12.77 -27.94,17.86 -2.99,0.92 -0.58,-1.07 c 1.07,-0.88 2.27,-1.5 3.12,-2.65 8.97,-12.03 14.4,-25.38 11.11,-40.07 -1.05,-4.67 -3.1,-9.03 -4.65,-13.59 q -0.4,-1.18 -0.39,0.07 c 0.11,10.63 -1.18,19.96 -5.81,29.8 a 1.09,1.09 0 0 1 -1.64,0.41 c -1.56,-1.16 -3.13,-2.39 -4.88,-3.25 q -8.73,-4.29 -17.23,-8.76 a 0.32,0.32 0 0 0 -0.46,0.31 c 0.78,8.77 -0.08,19.23 -4.54,27.12 q -3.79,6.69 -7.94,12.54 -2.92,4.13 -7.7,9.01 -3.92,4 -7.86,6.72 -9.74,6.72 -22.24,9.92 -1.05,0.27 -0.3,-0.52 c 0.83,-0.88 1.88,-1.72 2.54,-2.73 q 6.86,-10.47 9.57,-20.65 2.87,-10.79 1.89,-18.72 -0.67,-5.45 -1.13,-10.36 -0.11,-1.19 -0.41,-0.04 c -0.77,2.94 -1.28,5.68 -2.69,8.47 q -8.05,15.91 -22.87,27.25 c -2.76,2.12 -6.02,3.68 -9.28,5.04 q -2.29,0.96 -0.73,-0.97 c 11.13,-13.86 17.03,-34.65 9.88,-51.92 -3.89,-9.36 -10.19,-17.2 -15.28,-25.86 -3.24,-5.53 -4.9,-13.66 -0.98,-19.21 5.77,-8.16 18,-9.75 27.52,-8.43 q 11.3,1.58 19.19,9.59 5.07,5.17 10.55,10.54 5.9,5.79 13.87,7.65 c 6.53,1.52 13.12,2.09 19.79,0.71 17.27,-3.59 28.95,-16.49 37,-31.62 q 4.07,-7.64 8.38,-14.46 9.95,-15.77 24.9,-24.04 11.22,-6.21 23.27,-10.17 10.38,-3.41 19.11,-7.3 13.68,-6.1 22.54,-18.16 c 6.44,-8.76 9.65,-19.21 16.03,-28.08 12.78,-17.79 36.63,-26.88 58.64,-27.84 17.48,-0.76 33.26,0.71 50.14,2.93 q 12.19,1.6 24.21,1.25 26.47,-0.77 46.66,-16.81 1.22,-0.97 0.78,0.53 c -2.16,7.33 -6.51,14.26 -10.85,20.22 q -8.27,11.35 -18.42,18.8 c -7.67,5.63 -16.49,9.57 -25.09,13.79 q -0.71,0.35 0.02,0.65 28.1,11.91 45.82,37.19 16.08,22.95 16.64,50.68 0.03,1.47 -0.75,0.22 -11.65,-18.72 -32.06,-27.39 -0.64,-0.27 -0.35,0.36 1.49,3.25 3.27,5.89 6.87,10.2 10.46,21.18 13.46,41.07 -1.56,81.89 -0.15,0.39 -0.55,0.27 -0.14,-0.04 -0.25,-0.13 -0.16,-0.12 -0.15,-0.32 0.26,-3.06 -0.11,-5.72 c -2.48,-18.33 -8.81,-35.8 -20.29,-50.38 q -0.77,-0.99 -0.48,0.23 2.04,8.52 2.51,17.63 1.49,29.18 -9.1,57.68 c -1.89,5.09 -4.77,9.96 -7.13,14.87 q -2.24,4.68 -5.52,8.93 c -3.05,3.97 -5.49,8.39 -8.85,12.13 -6.92,7.71 -14.24,15.78 -23.18,21.27 a 0.34,0.32 51.1 0 1 -0.41,-0.05 q -0.13,-0.13 -0.14,-0.32 0,-0.17 0.09,-0.31 2.84,-4.03 5.28,-9.43 4.48,-9.92 6.59,-17.08 5.21,-17.64 3.45,-35.41 -0.09,-0.93 -0.38,-0.04 c -0.52,1.59 -0.72,3.15 -1.54,4.64 -2.93,5.3 -4.96,11.35 -8.5,16.35 q -4.04,5.71 -7.97,11.56 c -2.96,4.4 -6.89,8.89 -10.46,12.76 q -15.8,17.16 -38.4,25.77 -2.42,0.92 -4.74,1.38 -6.99,1.4 -15.09,2.47 -0.92,0.12 -0.18,-0.44 8.83,-6.66 16.2,-16.34 5.55,-7.29 8.93,-17.3 a 0.24,0.24 0 0 0 -0.33,-0.29 q -25.26,12.11 -52.74,16.68 c -10.79,1.79 -21.88,4.03 -32.06,6.73 -12.42,3.29 -25.19,11.13 -35.07,20.04 -6.57,5.93 -10.82,13.34 -14.3,21.74 -4.41,10.66 -4.67,22.47 -1.86,33.68 2.41,9.63 9.12,18.97 16.4,25.78 q 5.55,5.2 14.32,8.43 a 0.14,0.14 0 0 1 -0.05,0.27 q -32.24,-0.69 -63.42,-10.53 -8.6,-2.71 -18.01,-6.74 -1.87,-0.8 -2.26,-2.62 -6.18,-28.94 7.66,-53.87 c 12.31,-22.18 34.66,-36.11 58.46,-43.08 17.29,-5.06 35.8,-7.84 53.43,-10.96 q 28.64,-5.08 52.62,-14.66 30.69,-12.26 53.56,-36.36 c 12.49,-13.17 22.7,-27.65 29.56,-44.1 q 11.89,-28.52 9.35,-60.78 -2.78,-35.1 -25.35,-60.56 c -16.55,-18.67 -40.36,-26.97 -64.26,-18.81 -5.09,1.73 -9.86,4.34 -14.66,6.74 q -1.42,0.71 0.17,0.71 9.79,-0.03 21.48,2.58 c 16.29,3.64 30.85,13.46 41.36,26.11 q 12.36,14.85 15.45,34.42 0.13,0.79 -0.44,0.23 c -7.16,-7.02 -16.28,-12.1 -26.32,-14.69 q -12.75,-3.29 -23.73,-3.37 -22.78,-0.18 -47.92,3.55 c -1.33,0.2 -2.59,0.02 -3.92,-0.01 q -1.13,-0.03 -0.11,0.45 c 1.48,0.68 2.96,1.2 4.26,2.19 9.59,7.27 17.51,15.03 24.17,24.73 7.11,10.34 15.05,20.56 26.38,25.7 a 0.43,0.43 0 0 1 0.22,0.58 q -0.15,0.33 -0.51,0.35 -7.19,0.55 -14.18,0.84 -14.54,0.6 -29.14,-2.62 -17.12,-3.77 -31.33,-13.52 -5.12,-3.51 -10.45,-7.18 -11.26,-7.74 -24.13,-8.92 c -1.34,-0.13 -2.43,-0.4 -3.7,-0.81 q -0.76,-0.26 -0.24,0.36 z"
               id="path14"
               style="fill:#ffffff;stroke:none" /><path
               fill="#ec5100"
               d="m 503.83338,538.15807 c -7.75,-0.24 -14.08,-3.79 -19.83,-9.29 q -1.1,-1.05 0.39,-0.75 c 14.3,2.82 28.74,-4.36 36.99,-15.97 q 5.37,-7.57 12.31,-18.05 c 9.42,-14.23 23.69,-24.7 41.48,-23.83 q 8.05,0.4 15.05,2.82 1.65,0.57 -0.06,0.89 -18.54,3.47 -33.77,15.44 -4.68,3.67 -10.32,9.74 c -6.06,6.52 -10.68,15.75 -15.74,23.42 -5.79,8.79 -15.83,15.91 -26.5,15.58 z"
               id="path16"
               style="fill:#ffffff;stroke:none" /></g></g></g></g></g></svg>
